@startuml Interitance
title Vehicle
class Vehicle{
#manufacturer : string
#year : int
#color : string
+start()
+drive()
}
class Car extends Vehicle{

+openSunRoof()
}

class Truck extends Vehicle{

+transport()
}


class Bus extends Vehicle{

+scheduling()
}

class SchoolBus extends Bus{

+getFare()
}

Bus -u-|> Vehicle : <<extends>>
Truck -u-|> Vehicle : <<extends>>
Car -u-|> Vehicle : <<extends>>
SchoolBus -u-|> Bus : <<extends>>



hide empty members

@enduml