@startuml Class Diagram
title Product Model
class Product{
    -name:string
    -price:float
    -quantity:int
    --
    +getName():string
    +getPrice():float
    +getQuantity():int
    --
    +setName(value:string)
    +setPrice(value:float)
    +setQuantity(value:int)
    --
    +Product(name:string,price:float,quantity:int) 
    --
    +getTotalPrice():float
    
}

class Object{
    toString():string
}

Product -up-|> Object : "<<extends>>"

hide empty members

class ProductHelper{
    +createItemFromText()
    +getBalance()
}

ProductHelper -right-|> Object : "<<extends>>"

hide empty members

@enduml